<svg xmlns="http://www.w3.org/2000/svg" viewBox="0 0 200 200"><defs><style>.cls-1{fill:#fff;}</style></defs><title>iconos</title><g id="Graphic_Elements" data-name="Graphic Elements"><circle class="cls-1" cx="101.19" cy="100" r="67.5"/><path class="cls-1" d="M101.19,65.16c11.34,0,12.69,0,17.17.25a23.38,23.38,0,0,1,7.89,1.46,14.09,14.09,0,0,1,8.07,8.06,23.66,23.66,0,0,1,1.46,7.9c.21,4.48.25,5.82.25,17.17s0,12.69-.25,17.17a23.66,23.66,0,0,1-1.46,7.9,14.09,14.09,0,0,1-8.07,8.06,23.38,23.38,0,0,1-7.89,1.46c-4.48.21-5.82.25-17.17.25s-12.7,0-17.18-.25a23.38,23.38,0,0,1-7.89-1.46,14,14,0,0,1-8.06-8.06,23.33,23.33,0,0,1-1.47-7.9c-.2-4.48-.25-5.82-.25-17.17s0-12.69.25-17.17a23.33,23.33,0,0,1,1.47-7.9,14,14,0,0,1,8.06-8.06A23.38,23.38,0,0,1,84,65.41c4.48-.21,5.83-.25,17.18-.25m0-7.66c-11.55,0-13,0-17.53.26a31,31,0,0,0-10.31,2A21.7,21.7,0,0,0,60.92,72.16a31.26,31.26,0,0,0-2,10.32c-.2,4.53-.25,6-.25,17.52s.05,13,.25,17.52a31.26,31.26,0,0,0,2,10.32,21.7,21.7,0,0,0,12.43,12.43,31,31,0,0,0,10.31,2c4.54.21,6,.26,17.53.26s13-.05,17.52-.26a31.14,31.14,0,0,0,10.32-2,21.78,21.78,0,0,0,12.43-12.43,31.29,31.29,0,0,0,2-10.32c.21-4.53.26-6,.26-17.52s-.05-13-.26-17.52a31.29,31.29,0,0,0-2-10.32A21.78,21.78,0,0,0,129,59.73a31.14,31.14,0,0,0-10.32-2c-4.53-.21-6-.26-17.52-.26Z"/><path class="cls-1" d="M101.19,78.18A21.82,21.82,0,1,0,123,100,21.82,21.82,0,0,0,101.19,78.18Zm0,36A14.17,14.17,0,1,1,115.35,100,14.17,14.17,0,0,1,101.19,114.17Z"/><circle class="cls-1" cx="123.87" cy="77.31" r="5.1"/></g></svg>