<svg xmlns="http://www.w3.org/2000/svg" viewBox="0 0 200 200"><defs><style>.cls-1{fill:#fff;}</style></defs><title>iconos</title><g id="Graphic_Elements" data-name="Graphic Elements"><path class="cls-1" d="M167.5,100a67.5,67.5,0,1,0-78,66.68V119.51H72.31V100H89.45V85.13c0-16.92,10.08-26.26,25.5-26.26a103.77,103.77,0,0,1,15.11,1.32V76.8h-8.51c-8.39,0-11,5.2-11,10.54V100h18.72l-3,19.51H110.55v47.17A67.51,67.51,0,0,0,167.5,100Z"/><path class="cls-1" d="M126.27,119.51l3-19.51H110.55V87.34c0-5.34,2.61-10.54,11-10.54h8.51V60.19A103.77,103.77,0,0,0,115,58.87c-15.42,0-25.5,9.34-25.5,26.26V100H72.31v19.51H89.45v47.17a68.28,68.28,0,0,0,21.1,0V119.51Z"/></g></svg>