<?xml version="1.0" encoding="utf-8"?>
<!-- Generator: Adobe Illustrator 24.0.1, SVG Export Plug-In . SVG Version: 6.00 Build 0)  -->
<svg version="1.1" id="ESCUDO_COMPLETO" xmlns="http://www.w3.org/2000/svg" xmlns:xlink="http://www.w3.org/1999/xlink" x="0px"
	 y="0px" viewBox="0 0 800 800" style="enable-background:new 0 0 800 800;" xml:space="preserve">
<style type="text/css">
	.st0{fill:#0B050E;}
	.st1{fill:#6DC6D9;}
	.st2{fill:url(#SVGID_1_);stroke:#FFFFFF;stroke-width:0.5;stroke-miterlimit:10;}
	.st3{fill:url(#SVGID_2_);stroke:#FFFFFF;stroke-width:0.5;stroke-miterlimit:10;}
	.st4{fill:url(#SVGID_3_);stroke:#FFFFFF;stroke-width:0.5;stroke-miterlimit:10;}
	.st5{fill:url(#SVGID_4_);stroke:#FFFFFF;stroke-width:0.5;stroke-miterlimit:10;}
	.st6{fill:url(#SVGID_5_);stroke:#FFFFFF;stroke-width:0.5;stroke-miterlimit:10;}
	.st7{fill:#6FC7D9;}
	.st8{fill:#2D4C9B;}
	.st9{fill:#2B4B9B;}
	.st10{fill:#E84917;}
	.st11{fill:#5FC0CF;}
	.st12{fill:#61B7C5;}
	.st13{fill:#2B4B9A;}
	.st14{fill:#5ABAD7;}
</style>
<g id="completo">
	<g id="marco__x2B__nombre">
		<g id="marcos">
			<path id="NEGRO" class="st0" d="M642.14,582.24c-2.92-14.15-14.62-113.92-15.37-120.91c-0.89-8.28-5.9-18.53-14.51-18.15
				c0,0-0.01,0-0.01,0c-0.5-1.76-1.98-3.24-3.77-3.63c-4.54-2.76-9.94-0.89-15.03-0.72c4.65-18.01,11.56-35.36,15.21-53.71
				c5.18-26.02,8.4-52.24,9.81-78.7c0.11-2.12,0.19-5.26-1.06-6.28c-8.26-6.73-16.89-13.02-26.77-20.48
				c0.16,8.31-1.19,16.08,3.92,19c9.05,5.17,7.23,12.17,6.45,19.61c-0.39,3.76-0.85,7.5-1.29,11.25
				c-2.69,23.12-5.22,46.22-12.41,68.6c-3.94,12.29-9.08,24.31-10.68,37.29c-0.03-0.02-0.06-0.03-0.1-0.05
				c-0.39-0.2-0.83-0.27-1.26-0.2c-9.3,1.55-18.54,3.29-27.96,4.21c-18.27,1.78-36.57-1.17-54.76,2c-0.72,0.13-1.69,0.02-2.47-0.07
				c-0.57-0.39-1.27,0.09-2.06-0.03c-0.32-0.24-0.59-0.54-0.78-0.93c-1.2-2.42,1.14-3.99,2.53-5.61c4.75-5.53,9.13-11.35,13.74-17
				c3.44-4.21,5.23-11.34,13.64-6.88c2.56,1.36,4.57-2.67,6.14-4.99c4.44-6.59,7.61-13.88,11.35-20.86
				c2.63-4.91,3.92-10.5,6.84-15.32c0.59-0.97,1.88-1.22,2.82-0.59c9.02,6.06,10.99,4.9,14.62-6.66
				c5.56-17.72,7.44-35.95,6.28-54.47c-0.2-3.19-0.51-6.48-3.69-8.13c-0.59-0.31-1.32-0.29-1.9,0.04
				c-4.47,2.49-4.11,7.32-4.82,11.59c-1.41,8.43-1.47,17.08-3.09,25.78c-0.38,2.07-3.33,2.19-3.88,0.16
				c-0.55-2.03-1.44-3.6-4.1-3.65c-5.65-0.11-6.06,5.65-7.12,9.8c-1.79,7-4.25,13.78-6.13,20.75c-0.03,0.12-0.08,0.24-0.14,0.36
				c-1.58,3.08,0.45,9.84-7.75,6.15c-2.52-1.13-5.17,5.09-8.16,7.73c-0.11,0.1-0.21,0.21-0.29,0.33
				c-3.83,5.73-9.84,9.49-13.68,15.22c-0.05,0.08-0.1,0.15-0.14,0.23c-1.04,2-1.8,4.26-4.54,4.91c1.17-2.23,3.18-3.59,4.35-5.6
				c7.76-6.75,9.34-17,14.21-25.39c1.16-1.99,0.93-4.53-1.33-5.87c-2.28-1.36-4.21,0.05-5.87,1.64c-1.6,1.53-2.91,3.32-4.34,5.01
				c-8.14,9.64-15.79,19.82-26.9,26.37c-4.89,2.88-9.99,5.4-14,9.55c-1.95,1.89-4.42,3.08-6.57,4.91c1.39-2.01,3.68-2.62,5.28-4.13
				c2.29-1.95,4.44-4.07,6.75-6c0.14-0.12,0.26-0.26,0.36-0.41c2.07-3.17,7.77-5.45,3.11-10.22c-0.41-0.42-0.99-0.66-1.57-0.63
				c-2.52,0.15-4.32,1.91-6.3,3.27c-5.4,3.59-11.54,5.92-16.42,10.36c3.51-4.87,9.18-6.57,13.61-10.06
				c14.02-10.38,27.74-21.14,39.54-34.07c13.15-14.41,24.47-29.93,27.02-50.13c1.5-11.93,0.48-23.72-2.09-35.43
				c0.77,3,1.25,6.04,2.01,9.02c0.86,3.38,1.69,7.78,5.91,7.48c4.6-0.32,3.82-5.03,4.18-8.36c0.24-2.2,0.03-4.44,0.15-6.66
				c0.14-2.61,0.46-5.24,3.35-6.27c7.49-2.66,5.47-8.05,3.97-13.35c-0.99-3.48-3.76-7.26,1.32-9.9c4.8-2.49,7.49,0.83,10.6,3.69
				c4,3.68,4.69,10.08,10.06,12.52c0.35,0.16,2.32,1.93,3.28,2.5c0.5,7.83,1.09,15.67,1.4,23.51c0.09,2.18,0.74,5.72-3.64,4.6
				c-1.79-0.46-3.73-3.89-5.16-0.25c-0.94,2.41-1.48,5.65,1.9,7.39c11.07,3.63,11.08,3.63,11.18-9.13c0.02-3.12,0.69-6.42-0.1-9.32
				c-1.52-5.6,0.4-12.37-4.62-16.85c5.3-2.31,2.13-9.45,1.07-14.09c-1.09-4.77-3.6-9.26-2.7-14.41c0.03-0.41,0.1-0.8,0.21-1.18
				c6.02,0,12.1,0,19.63,0c-4.8-6.71-10.7-8.49-15.75-9.03c-2.55-5.92-8.67-6.35-13.66-7.99c-13.95-4.59-14.36-4.5-7.64-15.22
				c0.22-0.35,0.32-0.75,0.3-1.15c0.24,0.15,0.45,0.32,0.59,0.56c4.35-2.53,8.58-5.21,11.91-9l-0.15,0.19
				c0.8-0.62,1.4-1.41,1.85-2.28c7.09-4.53,14.18-9.06,23.61-15.08c-6.9,0-10.88-0.27-14.81,0.07c-4.31,0.38-8.57,1.33-12.85,2.03
				c-2.08-0.45-3.69,0.57-5.25,1.72c0,0,0,0,0,0c-7.59-1-15.1,3.84-22.66,0.91c-0.02-8.94,9.98-10.87,11.27-18.38c0,0,0,0,0,0
				c0,0,0,0,0,0c8.3-9.15,18.97-16.08,26.16-27.3c-4.52-1.91-7.92-0.5-11.47,0.57c-19.99,5.99-38.61,15.34-57.74,23.46
				c-2.61,1.11-5.74,3.46-7.74,0.87c-2.49-3.22,1.81-4.72,3.53-6.51c9.45-9.85,19.1-19.52,28.67-29.25
				c-14.06,2.34-26.32,7.81-38.42,13.71c-9.25,4.51-19.1,8.1-25.32,17.09c-16.99,2.63-5.71-12.81-12.24-18.63
				c-2.39,2.83-5.55,5.34-7.11,8.62c-6.41,13.41-18.25,12.52-30.02,12.12c-1.83-0.06-4,0.45-5.12-1.49c-1.36-2.35-0.07-4.5,1.6-5.93
				c9.46-8.11,14.56-20.02,24.18-27.91c5.18-4.24,7.35-10.08,11.73-17.34c-6.27,2.18-10.65,3.12-14.45,5.13
				c-9.4,4.98-17.93,11.51-27.85,15.6c-2.69,1.11-5.73,2.48-8.02,0.42c-2.58-2.32-0.74-5.06,0.73-7.64
				c2.17-3.8,4.28-7.71,5.83-11.79c4.74-12.54,14.11-22.84,18.26-37c-26.18,9.81-44.07,30.18-67.94,45.31
				c5.72-17.38,14.7-30.26,22.88-46.33c-20.76,12.38-36.95,26.6-52.31,41.85c-3.22,3.19-3.56,10.8-8.99,9.71
				c-5.79-1.16-4.07-8.27-5.17-12.94c-0.37-1.57-0.53-3.44-2.21-3.91c-2.45-0.69-2.79,1.82-3.95,3.16
				c-4.12,4.76-3.22,11.59-6.92,16.5c-0.22,0.23-0.4,0.45-0.55,0.67c-5.3,6.51-7.86,14.43-11.05,22.02
				c0.62,4.96-5.33,6.36-5.8,10.73c0,0,0,0,0,0c-1.72,3-3.27,6.12-5.2,8.99c-3.85,5.74-7.4,13-14.41,14.17
				c-7.75,1.3-9.33,4.92-8.55,11.45c0.23,0.69,0.46,1.37,0.68,2.07c0,0,0,0,0,0c-8.6,13.83-19.93,25.03-32.81,34.86
				c-5.39,4.11-11.49,8.73-4.81,16.66c0,0,0,0,0,0c-0.41,10.94-45.86,64.2-34.19,69.69c4.91,2.31,1.74,26.34,6.14,29.93
				c5.91,4.83,37.32-24.75,32.67-18.44c-5.39,8.89-12.47,15.89-21.2,21.15c-15.17,9.15-11.3,32.35-1.32,40.32
				c1.59,1.27,3.22,2.65,4.44,1.32c-0.79,2.74-0.4,5.5,1.65,7.51c6.73,6.63,12.9,14.04,21.68,18.26c3.89,1.87,7.8,2.22,11.94,0.65
				c16.94-6.43,32.82-14.95,48.2-24.41c6.28-3.87,11.3-9.13,14.89-15.7c6.27-11.45,17.15-14.47,28.93-14.91
				c7.86-0.29,11.57,4.69,9.97,12.48c-1.49,7.24-4.49,14-9.51,19.45c-12.29,13.35-22.74,28.05-32.33,43.38
				c-3.27,5.23-7.46,7.24-13.38,7.08c-3.92-0.1-7.84,0.01-11.76,0.07c-1.79,0-3.58-0.02-5.37-0.02c-0.7,0-1.41,0-2.11,0
				c-1.5-0.04-3-0.1-4.5-0.22c-11.78-0.94-24.66,1.18-30.31-14.67c-1.97-5.53-10.38-9.12-17.13-7.19c-6.67,1.91-5.14,8.3-4.12,13.79
				c0.83,4.43-2.73,4.14-5.53,4.39c-4.43,0.39-9.35-0.24-11.43,4.95c-0.15,0.12-0.29,0.25-0.43,0.39c-8.1,0.51-16.24,1.42-24.14,3.1
				c-3.53,0.75-6.9,2.58-7.35,6.55c-0.48,4.23,2.71,6.57,5.12,9.45c5.41,6.45,0.25,117.02-3.14,122.29
				c-1.52,2.36-0.83,4.56,0.76,5.9c0.33,2.34,2.82,4.06,5.07,4.3c18.7,1.96,37.47,2.95,56.27,2.98c2.85,0.36,5.72,0.6,8.59,0.74
				c-4.28,7.42-12.31,16.84-13.58,18.1c-0.84,0.28,0.81,6.29,0,6.64c-12.19,2.54,1.9,4.16-8.92,11.74
				c-5.74,2.34-3.69,6.17-5.62,12.85c0.57,1.4-2.68,4.22-3.78,5.7c-2.02,2.7-3.37,15.25-6.09,15.49c-1.96,0.24-0.8,12.54-2.04,14.13
				c-0.34,5.9-4.71,11.8-1.14,11.57c-1.22,0.91-10.8,13.37,0.4,19.18c-2.32,1,4.62,6.52,3.51,8.84
				c3.93-2.84,17.29-12.03,21.77-16.51c0.27,1.38,0.88,3.08,1,4.49c3.16,1.86,22.79-30.62,26.88-31.04
				c6.58-2.1,12.61-5.57,18.9-8.31c13.21-5.76,27.23-7.64,40.96-10.92c1.89,0.27,3.69,0.3,4.51-1.41c0.66-1.37,0.24-2.73-0.69-3.91
				c0.22-0.74,0.37-1.52,0.44-2.34c-6.79-7.68-17.25-7.76-26.28-11.68c23.79-21.7,62.54-23.29,88.82-5.67
				c13.69,9.18,28.55,19.18,46.79,13.35c6.88-2.2,13.5-5.34,20.03-8.47c4.13-1.98,7.69-2.79,12.55-1.67
				c15.4,3.54,31.09,5.43,46.98,4.49c30.93-1.81,55.44-13.44,67.73-43.75c2.49-0.17,4.85-0.25,6.22-0.63
				c5.29-1.49,10.02-4.4,15-6.63c0,0,37.24-0.4,49.4-1.56c0.87-0.08,1.65-0.32,2.33-0.68C639.56,588.63,642.94,586.13,642.14,582.24
				z M566.89,182.82c-0.17-0.92-0.45-1.69-0.8-2.2C566.7,180.77,567.07,181.34,566.89,182.82z M190.59,703.32
				c-0.05-0.36,0.04-0.45,0.35-0.16C190.81,703.21,190.71,703.27,190.59,703.32z M371.66,276.42c3.29-1.08,6.74-1.59,10.15-2.2
				c4.32-0.77,8.81-0.9,12.69-3.32c0.21-0.15,0.4-0.3,0.58-0.46c0.75,0.52,1.5,1.02,2.02,1.71c8.7,11.66,8.69,11.68,18.19,0.22
				c0.17-0.21,0.1-0.61,0.15-0.93c-0.06-0.04-0.11-0.08-0.17-0.12c18.55-10.94,39.23-14.87,60.13-17.98c7.1-1.06,14,1.11,20.28,3.68
				c4.73,1.94,8.1,5.98,8.49,11.92c0.09,1.43-1.34,2.5-2.68,2c-5.8-2.15-10.92-6.4-16.68-3.85c-9.52,4.21-19.41,5.11-29.48,5.77
				l-34.87,13.86c-0.15-0.02-0.3-0.03-0.45-0.02c-5.75,0.35-10.68,3.23-15.83,5.31c-9.16,3.71-18.72,5.63-28.44,6.62
				c-5.8,0.59-11.76-0.31-13.84-7.05C359.99,285.41,364.51,278.76,371.66,276.42z M443.57,615.04
				c-10.43,7.43-21.95,12.51-33.68,17.32c-3.65,1.5-6.68,0.87-9.76-1.33c-12.41-8.85-26.79-14.14-39.87-21.88
				c-7.59-4.49-13.73-11.28-22.36-14.01c-0.16-0.1-0.32-0.19-0.48-0.29c3.62-0.5,7.24-0.97,10.87-1.37c0.68,0.4,1.5,0.65,2.48,0.68
				c8.4,0.23,16.79,0.23,25.18,0.01c29.62,0.01,59.24,0.02,88.85,0.03c0.24,0.65,0.61,1.24,1.17,1.7c0.3,0.25,0.6,0.48,0.91,0.71
				c0.61,0.6,1.27,1.15,1.98,1.63C461.6,605.63,451.81,609.18,443.57,615.04z M502.29,624.23c-8.17-0.39-16.38,0.03-24.57-0.12
				c-2.28-0.04-5.12,0.98-6.94-2.59c4.39-3.42,8.64-7.09,13.24-10.36c3.24-3.2,8.63-3.97,10.2-9.07c-0.19-0.07-0.39-0.15-0.58-0.22
				c3.2-0.22,6.4-0.52,9.53-0.69c13.75-0.74,27.52-0.79,41.27-0.2c0.29,1.84,1.69,3.23,3.39,3.81
				C537.09,619.58,521.48,625.15,502.29,624.23z"/>
			<g id="MARCO">
				<path id="MARCO_SUP" class="st1" d="M579.41,438.51c14.49-38.92,21.84-84.34,24.7-125.69c0.37-5.31-0.98-9.98-4.96-13.82
					c-3.21-3.1-5.64-6.67-4.74-11.78c18.65,9.1,20.88,12.69,19.99,31.56c-0.06,1.27,0.01-0.32-0.03,0.95
					c-1.23,35.1-7.78,69.19-18.85,102.49c-1.93,5.8-5.4,11.68-2.5,18.27c6.33,1.52,13.05-1.07,19.27,1.82
					c0.4-10.31,5.82-19.34,7.65-29.21c6.55-35.35,13.49-70.65,15.85-106.66c0.72-10.93-2.53-18.63-12.05-24.41
					c-11.59-7.03-22.2-15.67-34.6-21.4c-3.81-1.76-5.03-4.52-4.49-8.39c0.7-4.99,4.67-3.28,7.47-3.36
					c7.28-0.21,14.57,0.08,21.84-0.17c3.53-0.12,8.33,1.92,10.08-2.72c1.84-4.87-2.78-7.29-5.72-9.94
					c-11.87-10.7-25.72-18.31-40.07-25.04c-5.84-2.74-6.5-4.83-0.52-8.8c16.04-10.65,31.7-21.89,47.52-32.88
					c2.25-1.56,5.77-2.51,4.33-6.23c-1.16-2.98-4.33-1.95-6.73-2.11c-18.76-1.21-37.5-0.17-57.18,1.19
					c11.65-13.86,22.76-27.03,33.81-40.24c1.32-1.58,4.22-2.69,3-5.3c-1.13-2.42-3.93-1.77-5.97-1.49
					c-5.92,0.81-11.78,2.03-17.68,3.01c-10.16,1.68-20.34,3.29-32.51,5.25c5.11-6.43,8.58-10.86,12.12-15.24
					c0.98-1.21,2.62-2.37,1.95-3.98c-0.83-1.99-2.99-2.11-4.92-2.06c-18.98,0.44-37.41,2.04-54.29,12.76
					c-10.11,6.42-21.83,10.3-33.35,15.56c-0.66-5.52,3.18-11.4-1.34-13.64c-7.65-3.78-4.64-6.89-1.17-11.16
					c2.58-3.17,4.62-6.78,6.97-10.14c1.56-2.23,4.83-3.99,3.01-7.25c-1.47-2.63-4.56-1.47-6.97-1.58
					c-15.75-0.77-29.56,6.75-45.13,10.68c4.92-12.85,12.03-23.97,17.55-35.85c2.16-4.65,8.04-10.77,4.14-14.47
					c-4.02-3.81-11.1,0.1-16.44,2.64c-11.73,5.57-23.69,10.67-35.11,18.85c-0.32-5.56,2.34-8.14,3.59-11.25
					c1.47-3.65,5.52-7.64,2.08-11.23c-3.32-3.47-7.75-0.33-11.39,1.31C364,57.96,344.39,74.46,325.12,91.29
					c-5.83,5.09-7.56,4.99-9.22-2.76c-1.07-4.96-1.63-13.79-5.44-13.77c-5.55,0.02-8.07,7.76-10.99,12.96
					c-12.67,22.56-21.78,46.96-35.58,68.96c-3.8,6.05-7.93,10.25-15.52,10.51c-7.31,0.25-10.9,4.34-9.64,11.84
					c1.66,9.91-2.67,17.15-9.98,23.1c-5.38,4.38-10.81,8.71-16.29,12.97c-10.45,8.13-20.09,17.78-15.15,31.91
					c6.12,17.54-0.62,26.8-15.39,34.53c-10.06,5.26-14.58,14.01-14.04,26.56c0.74,17.06,5.76,33.76,4.1,50.9
					c-0.98,10.16-2.61,20.11,6.42,27.96c1.14,0.99,0.84,3.58,1.37,5.37c4.91,16.32,6.63,33.31,10.43,49.87
					c3.47-5.5,8.79-3.47,13.6-3.22c6.4,0.33,11.5,0.09,5.95-8.28c-3.3-4.99,0.46-12.39,2.98-11.07c5.61,2.94,15.03,1.42,16.59,11.21
					c0.68,4.28,1.39,10.05,7.65,10.52c17.33,1.31,34.67,2.06,52.06,0.81c3.97-0.29,6.26-1.96,8.13-5.29
					c9.27-16.58,20.77-31.49,33.58-45.51c6.23-6.82,9.89-15.29,10.47-24.82c0.38-6.11-2.85-9.61-8.21-11.13
					c-10.87-3.09-30.2,4.7-35.39,14.91c-4.23,8.32-10.39,14.16-18.27,18.56c-9.04,5.05-17.84,10.63-27.23,14.92
					c-7.32,3.34-14.75,7.84-22.89,7.87c-8.32,0.04-26.32-19.03-27.71-27.65c-0.79-0.29-1.61-0.46-2.45-0.49
					c-12.73-9.02-13.61-26.18-1.3-35.97c13.84-11,26.36-22.67,29.44-41.25c0.79-4.74,4.31-5.77,8.29-6.18
					c2.36-0.45,4.58-1.28,6.52-2.73c5.71-8.14,5.62-11.22-0.76-18.2c-3.85-4.22-7.83-8.6-12.56-11.56
					c-9.27-5.8-13.75-13.52-12.98-24.37c-5.03-8.04-0.29-12.97,5.63-17.38c12.52-9.33,23.61-19.92,30.52-34.24
					c0.2-0.88,0.36-1.76,0.41-2.66c0.58-2.93-0.73-6.98,3.36-8.06c13.59-3.59,18.96-14.71,24.26-25.98
					c1.63-4.03,6.52-6.13,6.49-11.14c3.41-7.55,6.44-15.3,11.06-22.25c3.76-4.23,3.42-10.71,7.45-14.95
					c2.88,1.98,2.4,4.86,3.37,7.08c3.41,7.79,8.19,8.66,13.18,1.74c12.75-17.67,30.49-29.56,48.83-43.47
					c-7.12,11.74-13.05,22.2-17.52,33.4c-0.83,2.08-2.23,5.71-0.2,7.48c1.98,1.73,4.61-0.68,6.54-1.81c5.2-3.04,9.9-6.74,14.62-10.5
					c13.19-10.5,26.3-21.19,42.53-28.71c-1.46,5.11-3.68,8.6-5.84,12.06c-6.4,10.23-11.12,21.31-16.41,32.11
					c-1.45,2.97-2.11,6.25,0.49,8.87c2.51,2.53,5.8,2.08,8.93,1.12c1.82-0.56,3.35-1.9,5.13-2.43c11.2-3.27,19.21-12.99,31.18-15.82
					c-1.08,4.5-3.58,7.44-6.38,9.87c-9.43,8.19-15.48,19.18-23.83,28.26c-5.14,5.59-4.03,10.58,2.25,11.15
					c11.83,1.07,24.38,3.35,31.96-10.08c1.45-2.58,3.59-5.1,6.68-6.36c1.71,14.38,1.71,14.38,11.63,14.33
					c0.86-0.29,1.67-0.67,2.43-1.17c16.43-13.97,36.54-20.64,56.81-29.39c-2.02,3.08-4.01,4.55-5.71,6.29
					c-6.63,6.78-13.51,13.32-19.99,20.25c-1.94,2.08-4.27,4.57-2.56,7.51c1.94,3.34,5.42,2.53,8.54,1.63
					c2.13-0.62,4.18-1.49,6.17-2.42c14.33-6.66,28.79-13.01,43.72-18.2c4.57-1.59,9.02-3.93,15.16-3.85
					c-7.47,10.3-17.29,16.58-24.12,25.64c-2.54,3.97-6.34,7.01-8.63,11.15c-3.4,6.15-1.51,9.48,5.56,9.92
					c5.38,0.33,10.5-1.76,15.83-2.06c2.31-0.36,4.5-1.3,6.86-1.45c6.32,0.09,12.43-2.59,20.23-1.93
					c-7.27,3.07-12.01,7.3-17.11,10.99c-3.78,4.75-9.95,7.07-12.83,12.72c-3.98,3.12-10.77,4.82-9.13,11.39
					c1.35,5.39,7.74,4.01,11.95,5.45c6.4,2.18,13.4,2.95,18.49,8.12c1.79,3.03,5.96,2.54,8.24,5.25c-4.82,0.95-9.9-1.3-13.8,2.64
					c-5.09,4.9-0.15,9.15,1.13,13.44c1.52,5.11,4.78,10-0.66,14.24c0,0.9,0.75,0.4,1.2,1.19c4.47,7.99,2.51,18.09,3,26.8
					c0.38,6.78-2.37,9.03-8.63,8.17c-0.81,0.48-1.27,1.19-1.44,2.11c4.22,20.25,0.16,39.91-4.65,59.4
					c-1.15,4.65-1.51,11.83-6.43,12.85c-4.68,0.97-2.94-7.5-7.08-9.66c-0.28-0.15-0.58-0.26-1.89-0.85
					c-6.85,17.16-13.58,34.48-24.76,49.3c-3.68-1.17-2.27-5.27-5.4-7.06c-9.27,10.57-16.76,22.74-26.74,32.82
					c-1.65,1.67-4.84,3.48-3.65,6.11 M222.28,284.22c3.28,3.86,0.65,6.09-2.73,8.09c-5.07,3-10.01,6.23-15,9.36c0,0,0,0,0,0
					c-1.12,7.03,2.07,14.44-1.89,21.21c-4.36,3.75-7.07,12.25-13.02,10.48c-5.11-1.52-1.17-9.73-2.78-14.65
					c-4.3-13.17,0.91-21.97,12.54-27.65c4.6-2.25,8.43-5.45,12.01-8.82C216.35,277.58,219.38,280.81,222.28,284.22z"/>
				<path id="MARCO_INF" class="st1" d="M560.2,597.8c5.42-0.17,12.22-3.52,17.63-3.68c-5.56,32.21-34.53,57.98-65.65,63.71
					c-13.81,1.46-27.62,1.47-41.43,0c-4.73-0.16-9.39-0.42-14.09-1.53c-11.16-2.65-22.35-0.88-31.8,4.88
					c-17.5,10.65-33.55,4.48-49.53-2.56c-10.97-4.83-21.65-10.52-31.86-16.8c-7.92-4.87-15.41-1.8-22.93-0.51
					c-3.52,0.61-0.88,3.29,0.3,4.99c4.14,5.97,8.49,11.81,12.33,17.97c5.49,8.79,4.25,11.1-5.84,11.01
					c-19.09-0.16-37.74,2.4-56.04,7.86c-15.35,4.58-29.22,12.14-41.75,21.78c-14.33,11.04-26.5,24.35-35.52,40.27
					c-2.51,4.43-5.55,10.79-10.09,10.33c-5.75-0.59-4.81-8.27-5.46-12.74c-5.52-37.79-4.5-75.11,11.51-110.62
					c6.62-14.69,17.83-26.65,30.47-35.65c6.71-4.78,18.28-3.52,27.54-1.73c7.13,1.38,14.23,2.05,23.83,2.3
					c-7.82,5.15-14.04,8.99-19.96,13.24c-4.31,3.1-8.78,10-12.2,9.42c-5.52-0.94-0.52-10.02-5.46-13.68
					c-28.01,16.55-52.13,77.6-42.89,111.53c5.26-5.62,12.82-13.17,22.62-21.28c10.84-8.96,23.01-19.03,40.96-26.99
					c9.37-4.16,23.87-9.32,42.87-11.24c1.94-0.67,4.81,0.53,5.82-1.42c0.98-1.9-1.73-2.73-2.95-3.94
					c-5.29-3.73-11.39-5.49-17.43-7.4c-2.72-0.86-5.81-1.71-6.47-4.91c-0.77-3.72,2.2-5.82,4.75-7.52
					c5.81-3.9,12.19-6.84,18.93-8.63c10.1-2.68,20.47-4.05,30.86-5.05c8.46-0.82,16.13,1.25,23.51,5.72
					c10.81,6.55,21.25,13.75,33,18.74c9.94,4.23,20.07,5.32,29.28-0.15c15.32-9.1,30.99-8.53,47.49-4.99
					c16.05,3.45,32.33,2.17,48.02-1.74c16.01-4,25.74-12.49,28.51-14.79C551.44,613.34,557.21,603.74,560.2,597.8z"/>
			</g>
		</g>
		<g id="NOMBRE_HYDRA">
			<linearGradient id="SVGID_1_" gradientUnits="userSpaceOnUse" x1="213.0916" y1="458.8222" x2="213.0916" y2="578.847">
				<stop  offset="0.6039" style="stop-color:#FFFFFF"/>
				<stop  offset="0.709" style="stop-color:#BFBFBF"/>
				<stop  offset="0.9513" style="stop-color:#212121"/>
				<stop  offset="1" style="stop-color:#000000"/>
			</linearGradient>
			<path class="st2" d="M249.4,467.74v102.54l7.79,8.57h-41.3l7.79-8.57v-39.44h-21.35v39.44l7.64,8.57h-41.3l7.95-8.57V467.4
				l-7.79-8.57h41.45l-7.95,8.74v39.09h21.35v-39.44l-7.64-8.4h41.45L249.4,467.74z"/>
			<linearGradient id="SVGID_2_" gradientUnits="userSpaceOnUse" x1="311.6574" y1="458.8222" x2="311.6574" y2="578.847">
				<stop  offset="0.6039" style="stop-color:#FFFFFF"/>
				<stop  offset="0.709" style="stop-color:#BFBFBF"/>
				<stop  offset="0.9513" style="stop-color:#212121"/>
				<stop  offset="1" style="stop-color:#000000"/>
			</linearGradient>
			<path class="st3" d="M346.18,458.82h13.25l-8.1,8.74l-25.09,51.44l-1.87,3.77v47.32l3.9,4.29l4.05,4.46h-41.45l7.95-8.57v-47.84
				l-1.87-3.6l-25.25-51.44l-7.79-8.57h13.4h17.92h13.25l-2.96,3.26l-0.94,1.2l-3.74,3.94l10.75,21.95l10.75-21.78l-7.79-8.57h13.25
				H346.18z"/>
			<linearGradient id="SVGID_3_" gradientUnits="userSpaceOnUse" x1="406.1712" y1="458.8222" x2="406.1712" y2="578.847">
				<stop  offset="0.6039" style="stop-color:#FFFFFF"/>
				<stop  offset="0.709" style="stop-color:#BFBFBF"/>
				<stop  offset="0.9513" style="stop-color:#212121"/>
				<stop  offset="1" style="stop-color:#000000"/>
			</linearGradient>
			<path class="st4" d="M433.13,458.82l13.4,14.57v90.7l-13.56,14.75h-67.01l7.79-8.57V467.4l-7.95-8.57H433.13z M420.82,550.21
				v-62.93l-4.05-4.29h-17.45v71.5h17.45L420.82,550.21z"/>
			<linearGradient id="SVGID_4_" gradientUnits="userSpaceOnUse" x1="496.0908" y1="458.8222" x2="496.0908" y2="578.847">
				<stop  offset="0.6039" style="stop-color:#FFFFFF"/>
				<stop  offset="0.709" style="stop-color:#BFBFBF"/>
				<stop  offset="0.9513" style="stop-color:#212121"/>
				<stop  offset="1" style="stop-color:#000000"/>
			</linearGradient>
			<path class="st5" d="M532.87,570.1l7.95,8.74h-42.23l7.64-8.57l-10.29-39.44h-10.91v39.44l7.79,8.57h-41.45l7.95-8.74V467.4
				l-7.79-8.57h67.17l13.4,14.75v34.64l-11.84,13.2L532.87,570.1z M502.32,506.66l4.05-4.46v-14.57l-3.9-4.46h-17.45v23.32
				L502.32,506.66z"/>
			<linearGradient id="SVGID_5_" gradientUnits="userSpaceOnUse" x1="590.3716" y1="458.8222" x2="590.3716" y2="578.847">
				<stop  offset="0.6039" style="stop-color:#FFFFFF"/>
				<stop  offset="0.709" style="stop-color:#BFBFBF"/>
				<stop  offset="0.9513" style="stop-color:#212121"/>
				<stop  offset="1" style="stop-color:#000000"/>
			</linearGradient>
			<path class="st6" d="M625.9,570.62l7.48,8.23H592.4l7.64-8.4l-3.27-29.15h-12.62l-3.12,29.15l7.64,8.4h-41.3l7.79-8.57
				l11.22-103.05l-7.64-8.4h63.89l-7.95,8.74L625.9,570.62z M586.48,519.52h7.95l-3.9-36.52L586.48,519.52z"/>
		</g>
	</g>
	<g id="cuerpo_entero">
		<g id="COLA_INF">
			<path id="ESCUDO_INF" class="st7" d="M473.39,596.35c-1.68,0.78-3.68,1.21-4.98,2.41c-18.13,16.49-40.14,26.49-61.75,37.11
				c-3.11,1.53-6.54,1.71-9.77-0.7c-13.69-10.24-29.93-15.98-44.34-24.99c-6.66-4.17-13.23-8.32-18.43-14.31
				c2.87-3.66,6.94-2.58,10.57-2.39c35.03,1.78,70.09,0.8,105.13,1.17C457.71,594.72,465.77,592.56,473.39,596.35z"/>
			<g id="COLA">
				<g id="COLA_INFERIOR">
					<path class="st8" d="M550.5,597.83c-3.44,16.96-18.1,24.75-33.01,27.82c-16.99,3.5-34.45,2.75-51.75,1.33
						c-1.47-0.12-2.87-1.15-5.23-2.15c6.19-6.46,12.76-11.41,19.9-15.67c17.06,1.93,32.54-2.08,46.29-12.48
						C534.06,596.13,543.37,595.38,550.5,597.83z"/>
					<path class="st9" d="M225.32,676.8c22.81-14.34,45.14-19.55,60.39-21.54c1.19-0.16,1.32-1.83,0.16-2.17l-15.43-4.5
						c-0.04-0.01-0.09-0.02-0.13-0.03c-4.21-0.7-8.43-1.4-12.64-2.1c-0.3-0.91-0.35-1.08-0.65-1.99c3.83-3.87,8.67-8.02,14.7-11.79
						c2.31-1.44,4.57-2.69,6.74-3.77c0,0,0,0,0,0c4.1-2.03,8.83-4.06,14.18-5.83c9.02-3,17.25-4.44,24.02-5.11c0,0,0,0,0,0
						l-0.17-0.45c9.34-1.19,11.26-3.67,11.68-5.24c1.33-5.03-9.46-13.36-20.01-16.08c-7.46-1.92-14.03-0.84-18.01,0.2
						c-0.08,0.02-0.15,0.05-0.23,0.09c-7.97,4.09-16.15,7.85-23.21,13.47c-10.11,8.05-21.72,14.57-27.86,26.77
						c-0.03,0.06-0.07,0.12-0.11,0.17c-1.88,2.29-3.07,5.33-6.62,6.63c-0.63,0.23-1.33-0.16-1.46-0.81
						c-1.15-5.9-0.12-11.76-0.63-17.48c-0.16-1.76,1.62-4.94-1.84-5.17c-0.48-0.03-0.94,0.27-1.11,0.72
						c-9.44,24.81-18.87,49.62-28.31,74.42c-0.42,1.12,0.96,2.03,1.81,1.19C207.04,690.02,215.22,683.15,225.32,676.8z
						 M278.27,621.38c-0.04-0.03-0.09-0.07-0.13-0.1c0.1-0.06,0.2-0.11,0.3-0.17C278.38,621.2,278.32,621.28,278.27,621.38z
						 M298.46,612.03c-0.05,0-0.1,0-0.15,0c0.06-0.02,0.11-0.04,0.17-0.05C298.47,611.99,298.46,612.01,298.46,612.03z"/>
				</g>
				<g id="COLA_SUPERIOR">
					<path class="st7" d="M525.74,596.69c0.85,0,1.69,0.37,2.18,1.06c0.87,1.22-0.08,2.45-1.38,3.27
						c-13.4,8.41-39.71,12.39-55,14.07c-2.22,0.25,6.33-2.65,6.45-4.44c0.04-0.55,2.59-1.79,2.92-2.24c2.14-2.94,5.99-3.17,8.8-5.03
						c0.53-0.35,4.91-1.6,5.54-1.61C500.66,601.76,513.98,596.68,525.74,596.69z"/>
					<path class="st1" d="M229,617.17c-30.56,43.24-31.27,73.94-31.79,81.29c-0.04,0.52,0.61,0.78,0.96,0.39
						c9.2-10.48,32.61-56.4,102.98-97.3c0.33-0.19,0.36-0.64,0.08-0.89c-12.24-10.88-63.45,30.73-66.03,36.71
						c-0.12,0.29-0.44,0.44-0.73,0.33c-9.31-3.61,6.22-27.01-5.28-20.69C229.11,617.04,229.05,617.1,229,617.17z"/>
				</g>
			</g>
		</g>
		<g id="CUERPOS">
			<g id="NARANJA">
				<path class="st10" d="M420.65,288.21c-13.36,5.76-26.88,10.94-41.47,12.83c-9.24,1.19-18.4-2.08-19.68-7.52
					c-2.23-9.47,3.32-17.55,14.18-20.02c6.77-1.54,13.66-2.5,20.5-3.71c1.13,0.53,3.01-0.02,3.48,0.86
					c5.54,10.41,11.65,5.33,17.78,0.81c1.84-4.94,6.19-6.89,10.62-8.37c15.26-5.08,30.65-9.54,46.63-12.02
					c8.65-1.34,16.51,2.55,25.08,1.86c4.7-0.38,11.28,15.92,10.31,23.39c-4.38-0.15-7.21-3.56-10.87-5.17
					c-4.93-2.17-9.1-3.75-14.72,0.4c-5.78,4.27-13.96,2.33-21.03,3.52c-4,0.68-8.22-0.29-12.07,1.64
					C440.21,281.54,429.72,283.09,420.65,288.21z"/>
				<path class="st10" d="M229.31,394.01c1.19-4.37,1.56-9.45,7.1-11.22c6.24-2,8.1-9.42,14.81-11.28
					c6.85-1.9,18.73,2.95,21.14,9.58c1.21,3.33-1.48,3.78-3.19,4.69c-9.75,5.17-19.48,10.4-29.43,15.17
					C233.37,404,228.83,400.79,229.31,394.01z"/>
				<path class="st10" d="M332.79,228.61c-11.31-2.02-22.52,4.05-26.32,14.5c-1.96,5.38-3.83,10.76-7.54,15.18
					c-1.96-3.19-4.5-5.83-7.54-7.98c-13.16-6.99-34.44,3.27-37.18,17.95c-0.79,4.26-0.15,8.17,3.08,11.35
					c7.09,2.81,12.89,0.18,18.24-4.33c5.45-1.95,10.9-3.89,16.35-5.84c2.81-1.91,7.07-1.52,8.65-5.38c1.95,0.4,3.26-1.04,4.61-2.36
					c4.34-3.15,8.56-6.4,10.91-11.46c5.06-4.68,9.17-10.3,14.47-14.77C332.51,233.8,336.91,228.23,332.79,228.61z"/>
				<path class="st10" d="M500.99,319.75c1.21-7.68,2.21-14.85,3.51-21.97c0.92-5.06-0.46-9.39-3.54-13.23
					c-1.75-2.17-4.44-2.38-6.99-2.09c-3.11,0.34-2.76,2.95-2.86,5.1c-0.76,16.37-8.24,29.56-19.14,41.25
					c-14.99,16.09-33.25,28.23-50.19,41.96c-7.89,6.39-15.96,12.56-23.94,18.82c8.42-21.53,25.04-35.95,41.14-52.62
					c1.54,6.33-5.11,8.69-3.3,13.59c20.55-12.92,33.78-38.7,28.63-55.49c-4.71,3.96-4.73,10.94-10.4,16.04
					c0.74-10.87,5.48-20.28,1.33-29.86c-12.55-5.33-22.09-0.3-30.43,8.86c-3.23,1.14-4.61,3.26-5.46,6.8
					c-1.53,6.41-3.89,12.68-6.44,18.79c-12.27,29.4-33.28,52.59-54.21,75.8c-1.54,4.03-3.39,7.81-9.05,10.11
					c1.24-6.08,3.25-10.4,7.03-13.92c0,0,0,0,0,0v0c6.89-10.59,13.81-21.17,20.67-31.79c4.77-7.38,5.28-11.73,2.64-20.95
					c-2.92,1.35-2.05,4.28-2.79,6.52c-0.77,2.32-0.98,5.12-4.27,5.49c-6.35-18.06-6.49-18.08-13.41-21.27
					c-3.03-1.4-6.07-2.31-9.12-1c-4.66,2.01,3.25,5.16-0.35,7.49c-33.42-5.24-71.88,20.64-71.97,48.45
					c4.31-1.07,7.13-3.93,9.42-7.47c4.9-7.59,11.28-13.24,19.4-17.58c7.17-3.84,16.25-3.59,21.94-7.41
					c9.24-6.21,11.39,0.04,14.86,4.77c3.97,5.42,3.56,11.95,2.66,18.35c-1.83,13-11.04,21.76-18.08,31.78
					c-8.8,12.52-18.73,24.36-25.53,40.13c31.11,0,60.8-0.03,90.5,0.04c3.93,0.01,5.32-2.89,7.17-5.4
					c13.44-18.22,29.92-33.33,47.12-47.94c17-14.44,36.33-26.44,49.55-45.05c7.39-10.41,14.93-20.79,15.17-35.01
					C506.29,311.43,506.15,317.8,500.99,319.75z M330.27,431.79c-0.75,1.21-2.07,2.69-3.83,1.96c-1.79-0.74-1.34-2.56-1.28-4.11
					c0.55-12.51,12.35-18.14,17.14-28.16C340.71,412.72,336.05,422.5,330.27,431.79z M374.15,405.48
					c-1.84-8.37,1.83-16.58,11.14-24.73C382.69,390.84,377.77,397.09,374.15,405.48z M388.08,424.4
					c11.74-20.31,30.62-31.94,50.79-42.01C423,397.69,403.84,408.98,388.08,424.4z"/>
			</g>
			<g id="CABEZAS_AZULES">
				<g id="CABEZA_IZQ">
					<path class="st9" d="M350.08,306.04c-6.49-13.12-11.63-15.35-25.2-10.82c-0.19,0.06-0.5-0.26-0.76-0.4
						c-0.08-0.27-0.26-0.55-0.21-0.8c0.99-5.37,10.71-10.28,4.36-14.97c-5.35-3.96-9.59,4.5-13.74,8.39
						c-1.3,1.22-3.38,3.48-4.58,1.31c-7-12.6-16.52-6.99-25.74-4.03c-4.9,2.68-10.31,2.92-15.68,3.32
						c-7.77,1.64-16.07,1.83-22.1,8.22c-3.25,4.77-8.71,1.98-12.81,3.81c-5.05,0.97-6.45,4.8-6.63,9.13
						c-0.29,7.04-4.04,12.16-7.68,17.89c-4.47,7.03-12.42,10.97-15.42,18.99c0.11,0.63,0.13,1.21,0.07,1.77
						c-3.02,2.12-6.04,4.25-9.06,6.37c-3.75,8.31-2,19.39,4,27.02c0.4,0.73,0.8,1.46,1.2,2.19c0.3,0.29,0.59,0.6,0.88,0.9l0.56-0.3
						c5.37,0.24,6.56,5.33,9.67,8.22c2.9,2.69,5.22,7.2,9.98,6.26c4.91-0.97,5.06-5.88,6.27-9.74
						c3.46-11.09,19.89-23.79,31.21-24.23c2.64-0.1,5.06,0.45,7.08,2.18c7.66,6.59,9.94,2.28,11.45-5.23
						c1.14-5.69,1.88-11.16,7.6-15.52c18.79-14.32,38.81-25.94,61.55-32.51C350.74,312.18,352.21,310.34,350.08,306.04z
						 M220.66,355.71c-1.58,3.78-4.46,6.99-8.54,8.06c-2.03,0.54-3.5-1.68-3.04-3.74c1.03-4.6,4.67-7.08,7.66-9.59
						C220.03,351.48,221.55,353.57,220.66,355.71z M286.82,310.52c-6.8,11.41-17.38,17.98-30.4,20.51c-2.76,0.54-5.6,0.73-8.31,1.46
						c-2.37,0.64-4.34,5.01-6.98,1.6c-1.67-2.15-1.12-5.83,0.32-8.2c5.64-9.28,26.71-27.4,39.79-26.25
						C289.88,299.25,291.78,302.21,286.82,310.52z"/>
					<path class="st11" d="M280.11,307.3c-5.76,9.7-12.5,14.5-23.29,15.39C261.64,312.68,269.75,309.98,280.11,307.3z"/>
				</g>
				<g id="CABEZA_SUP">
					<path class="st9" d="M415.72,162.92c-13.21,0.58-26.22,2.57-39.08,5.62c-0.22-5.45-6.11-5.93-8.38-9.58c0,0,0,0,0,0
						c3.72-3.48,7.35-7.12,12.61-8.23c1.73,3.5-1.35,8.04,2.8,9.79c3.85,1.62,5.99-2.1,8.72-4c5.15-3.58,10.09-7.3,13.34-12.83
						c8.73-3.75,11.16-12.56,16.1-19.59c-7.72,2.04-15.09,4.17-21.62,8.41c-7.12,0.64-13.11,3.95-18.92,7.82
						c-2.84,1.89-7.23,5.23-9.26,3.26c-5.85-5.68-9.24-2.79-15.79,1.2c5.35-9.74,10.2-14.09,16.37-19.54
						c3.42,2.69-1.27,8.87,4.82,9.26c4.62,0.3,5.79-4.21,7.98-7.07c0.9-1.18,1.13-2.87,1.67-4.33c5.39-5.2,4.81-12.83,7.73-19.03
						c4.81-4.48,7.42-10.04,9.12-17.5c-5.71,1.9-10.39,2.98-13.19,7.56v0c-6.19,1.52-10.63,5.94-15.61,9.47c0,0,0,0,0,0
						c-3.64,2.44-7.75,4.12-10.74,7.58c-8.44,9.8-18.82,17.47-28.65,25.74c-1.26,1.06-2.52,2.21-4.12,1.24
						c-1.15-0.7-1.22-2.05-0.57-3.35c5.43-10.91,10.84-21.84,16.26-32.76c0.55,0.05,1.04-0.11,1.45-0.48c3.4-1.82,4.13-5,4.78-8.56
						c-3.96-1.04-6.26,1.02-8.53,3.16c0,0,0,0,0,0c-2.87,0.93-4.43,3.3-6.12,5.54c0,0,0,0,0,0c-11.11,8.92-18.41,21.85-29.95,29.41
						c-5.08-0.81,0.48-17.09-11.01-6.42c-3.16,5.91-6.31,11.81-9.48,17.73c-1.11,8.1-5.39,14.61-10.28,20.81
						c0.14,6.85-0.04,13.52-8.86,15.1c-0.17,3.84-2.97,5.55-6,6.26c-4.99,1.16-6.44,4.19-5.9,8.81c-1.17,0.65-2.35,1.3-3.52,1.95
						c-4.03,12.92-13.88,21.46-23.39,29.98c-6.26,5.61-14.15,9.59-14.05,19.59c0.45,7.54,3.71,13.35,10.47,17.01c0,0,0,0,0,0
						c7.42,3.77,10.37,14.9,21.27,12.93c4.6-4.72,0.3-11.53,4.51-16.88c6.54-8.32,15.59-11.44,24.74-14.88
						c6.4-2.41,9.66,3.23,14.32,5.32c1.43,0.64,2.91,1.16,4.37,1.74c3.2-0.45,5.47-2.23,5.64-5.44
						c0.71-13.81,10.21-20.89,20.62-27.16c5.67-3.41,11.66-6.3,17.52-9.38c3.62-1.9,8.33-3.28,9.53-7.23
						c1.46-4.78-6.59-2.5-6.92-7.72c12.62,0.6,25.29,3.02,37.1-3.27c6.11-3.25,12.4-6.16,18.6-9.21
						c5.78-4.89,12.39-8.44,19.17-11.69c2.05-0.98,4.38-1.89,3.3-4.7C419.84,162.13,417.46,162.84,415.72,162.92z M237.37,242.5
						c-1.91,1.06-3.46-1.62-2.6-3.53c1.76-3.93,3.3-8.56,8.11-9.65c2.92-0.66,3.37,2.07,3.4,5.13
						C245.72,239.1,240.97,240.51,237.37,242.5z M315.22,182.36c-3.76,10.57-6.31,22.11-18.68,26.81c-0.17,0.06-0.3,0.09-0.45,0.13
						c-5.6,6.42-30.8,6.93-29.13,4.15c-3.42,0.63-2.17-1.17-0.52-3.14c0.02-0.64,0.08-1.28,0.17-1.79c0.13-0.78,0.35-1.51,0.62-2.2
						c0,0-0.01,0-0.01,0c-2.68-0.11,2.78-4.53,6.75-9.17c0.08-0.12,0.17-0.24,0.25-0.36c0.03-0.02,0.06-0.03,0.09-0.05
						c8.85-12.53,21.49-17.61,36.28-18.24C312.95,178.38,316.59,178.49,315.22,182.36z"/>
					<path class="st12" d="M279.7,203.96c2.2-9.32,1.92-1.85,1-4.09c7.05-5.85,13.65-12.6,24.84-12.61
						c-3.75,6.53-7.69,11.56-14.24,13.57C288.69,201.64,282.7,203.98,279.7,203.96z"/>
				</g>
				<g id="CABEZA_DER">
					<path id="MELENA_1_" class="st13" d="M572.96,278.39c-0.74-5.4-0.76-11.14-3.6-16.14c-0.52-0.41-1.03-0.82-1.55-1.23
						c-3.4-6.43-7.56-12.23-12.24-17.88c-5.42-6.54-9.86-1.37-14,0.26c-6.02,2.36-0.68,6.2,0.14,9.33c0.8,3.05,2.1,5.96,2.89,9.01
						c0.52,2.01,0.15,4.12-2.73,3.21c-7.28-2.29-5.93,2.91-6.18,6.87c-0.36,5.57,1.65,11.57-3.02,17.56
						c-3.91-7.94-2.94-16.92-10.09-24.1c0.59,5.25,0.77,9,1.46,12.65c5.23,27.69-2.07,51.67-20.2,73.04
						c-13.19,15.54-29.97,26.8-45.09,40.05c-6.86,3.62-13.2,7.85-19.16,16.76c10.9-4.09,17.57-10.34,25.29-14.65c0,0,0,0,0,0
						c1.86-1.24,3.73-2.48,5.59-3.72v0v0c5.24,5.75-3.03,6.14-3.77,9.51c0,0,0,0,0,0c-2.65,0.97-4.23,3.14-5.82,5.27
						c-4.58,1.85-7.98,4.92-9.18,10.72c3.98-2.68,7.96-5.35,11.94-8.03c0,0,0,0,0,0c9.08-7.56,20.62-11.66,28.46-21.11
						c5.59-6.74,11.79-12.97,16.82-20.21c1.04-1.49,2.38-3.72,4.42-2.51c1.71,1.01,1.74,3.5,0.31,5.03
						c-6.76,7.21-7,18.23-14.63,24.89c0,0,0,0,0,0c-2.62,3.43-7.61,5.46-6.73,12.18c4.29-3.47,9.67-4.3,10.67-10.17c0,0,0,0,0,0
						c0,0,0,0,0,0c4.39-5.06,9.98-9.06,13.33-15.04v0c4.05-1.52,4.7-6.41,8.1-8.54c2.95,2.39-1.7,5.38,2.04,8.65
						c1.81-5.08,6.25-8.22,6.68-13.8c0,0,0,0,0,0c0,0,0,0,0,0c4.77-10.08,4.67-22.12,11.72-32.84c3.16,6.77,0.94,13.12,5.27,17.79
						c3.77-2.26,3.94-5.9,4.37-9.17c1.32-10.03,2.24-20.11,3.6-30.13c0.61-4.48,0.25-8.09,5.02-11.06c0.6,0.01,0.68-1.84,0.84-2.5
						c0.18-1.57,0.39-3.71,1.79-4.11C574.46,291.78,573.84,284.76,572.96,278.39z"/>
					<g id="CABEZA_DERECHA">
						<path class="st9" d="M364.09,206.59c3.97,0.29,8.3,0.35,2.65,5.43c-5.12,4.6-10.44,8.76-17.32,10.51
							c-2.44,0.62-5.31,2.35-6.98,0.08c-1.91-2.6,2.1-4.1,2.65-6.46C352.42,214.94,357.67,209.6,364.09,206.59z"/>
						<path class="st14" d="M429.67,216.91c-6.13,6.83-12.91,9.75-21.05,9.67c-1.82-0.02-4.15-0.18-4.71-2.3
							c-0.59-2.23,1.46-3.4,3.13-4.13C413.88,217.14,420.85,214.71,429.67,216.91z"/>
						<path id="MELENA" class="st9" d="M520.06,210.16c8.86-6.5,20.1-7.53,29.12-13.46c6.81,0.04,10.8-5.09,15.68-8.56
							c1.54-1.72,3.77-3.12,2.86-6.01c-3.71-3.64-8.2-3.1-12.72-2.37c-17.51,4.75-35.89,1.47-53.47,5.78
							c10.71-23.18,21.78,0.35,42.32-26.28c1.17-2.66,3.68-4.28,5.18-6.67c1.17-1.87,2.5-3.96,1.47-6.15
							c-1.35-2.87-4.19-2.28-6.65-1.97c-3.12,0.4-6.27,0.83-9.21,1.98c-14.61,5.72-29.02,11.92-43.6,17.73
							c-5.05,3.85-10.32,7.18-17.59,8.35c3.11-4.54,6.47-7.3,10.02-9.85c3.5-2.48,6.5-5.42,8.35-9.37c0.41-1.01,0.77-1.92,1.08-2.75
							c2.78-2.55,4.93-5.76,6.41-10.17c-4.59,0.2-8.49,1.21-12.12,2.6c-0.77,0.05-1.61,0.12-2.53,0.2
							c-0.91,0.08-1.83,0.17-2.73,0.33c-7.06,1.91-12.82,6.3-18.97,9.93l0.1-0.08c-3.06,1.6-6.57,2.06-9.55,3.9
							c-2.05,1.27-4.21,1.61-5.61-1.06c-3.28-6.25-7.12-4.51-11.45-1.1c-3.47,2.73-6.59,5.72-9.71,8.85
							c-7.9,7.92-14.02,18.17-25.9,21.27c-1.13,6.58-4.62,10.07-11.69,9.69c-6.51-0.35-9.83,4.38-12.96,9.11
							c-4.71,6.96-10.16,12.85-17.11,18.06c-6.63,4.97-15.67,6.42-20.35,14.01c-0.24,0.32-0.45,0.65-0.67,0.98
							c-0.81,0.06-1.63,0.13-2.44,0.19c-6.56,6.91-6.32,15.1-4.7,23.55c-0.13,0.44-0.26,0.89-0.4,1.33c0.01,4.22,3.13,6.45,5.74,9
							c4.64,2.72,5.78,8.11,9.08,11.82c1.6,1.8,1.37,5.6,4.47,5.46c3.3-0.15,4.21-3.84,5.04-6.14c5.82-16.21,20.58-17.39,34.02-20.8
							c3.8-0.97,5.37,2.39,7.55,4.47c2.68,4.12,4.93,9,10.95,8.59c4.36-0.29,4.52-4.49,5.93-7.44c2-10.19,10.42-12.8,18.42-16.63
							c11.32-5.42,26.33-3.03,34.16-15.98c0.29-0.49,2.38-0.29,3.41,0.13c8.75,3.57,18.12,3.15,27.13,3.13
							c5.06-0.01,17.4,9.29,14.6-7.62c-0.22-1.33,2.21-2.1,3.83-2.08c2.83,0.03,5.67,0.36,8.5,0.37c9.98,0.05,19.97,0.02,31.37,0.02
							c-2.93-4.93-5.38-4.65-7.39-5.37c-17.82-6.36-38.01-3.42-54.88-14.4c4-3.24,8.84-5.16,13.85-6.74
							c4.19-1.32,7.97-1.09,7.66,4.54C513.68,211.34,517.26,212.21,520.06,210.16z M346.39,244.19c-0.52,0.14-1.09,0.22-1.51,0.57
							c-1.11,0.9-0.48,2.86-1.39,3.96c-0.35,0.42-0.88,0.65-1.4,0.78c-1.11,0.29-2.5,0.12-3.09-0.86c-0.49-0.81-0.26-1.87,0.16-2.72
							c0.42-0.85,1.02-1.62,1.27-2.53c0.11-0.39,0.15-0.8,0.32-1.17c0.28-0.61,0.86-1.02,1.43-1.38c1.69-1.07,6.81-4.28,7.19-0.03
							C349.5,242.44,347.96,243.77,346.39,244.19z M435.42,221.47c-9.05,12.56-24.45,17.21-38.89,11.74
							c-0.59-0.22-1.15-0.5-1.74-0.73c-2.98-1.14-7.72,2.97-9.02-1.8c-1.29-4.74,3.94-6.75,6.8-9.3
							c9.55-8.53,21.52-11.19,31.2-12.98c3.48,0,4.44-0.08,5.37,0.01C440.35,209.58,441.8,212.61,435.42,221.47z"/>
					</g>
				</g>
			</g>
		</g>
	</g>
</g>
</svg>
